# xmcd database file
#
# Track frame offsets:
# 150
# 17429
# 38328
# 53365
# 69913
# 86729
# 104619
# 120520
# 141603
# 157395
# 174382
# 191039
# 207843
# 227962
# 240147
# 258037
# 274865
# 291522
#
# Disc length: 4115 seconds
#
# Revision: 0
# Processed by: cddbd v1.5.1PL0 Copyright (c) Steve Scherf et al.
# Submitted via: CD-Runner 2004.05
#
DISCID=f9101112
DTITLE=Dina Carroll - The Very Best Of
DYEAR=1900
DGENRE=R&B
TTITLE0=Ain't No Man
TTITLE1=Special Kind Of Love
TTITLE2=Someone Like You
TTITLE3=Escaping
TTITLE4=The Perfect Year
TTITLE5=It's Too Late
TTITLE6=Express
TTITLE7=Don't Be A Stranger
TTITLE8=Without Love
TTITLE9=Good To Me
TTITLE10=This Time
TTITLE11=Only Human
TTITLE12=Mind, Body and Soul
TTITLE13=Son of A Preacher Man
TTITLE14=One, Two, Three
TTITLE15=All I Ask
TTITLE16=Living For The Weekend
TTITLE17=So Close
EXTD=
EXTT0=
EXTT1=
EXTT2=
EXTT3=
EXTT4=
EXTT5=
EXTT6=
EXTT7=
EXTT8=
EXTT9=
EXTT10=
EXTT11=
EXTT12=
EXTT13=
EXTT14=
EXTT15=
EXTT16=
EXTT17=
PLAYORDER=
